<svg width="80" height="80" viewBox="0 0 80 80" fill="none" xmlns="http://www.w3.org/2000/svg">
<rect x="2" y="2" width="76" height="76" rx="8" stroke="#60E2FF" stroke-width="4"/>
<path d="M17.9261 57H11.1761L23.4659 22.0909H31.2727L43.5795 57H36.8295L27.5057 29.25H27.233L17.9261 57ZM18.1477 43.3125H36.5568V48.392H18.1477V43.3125ZM56.2989 57.5114C53.6739 57.5114 51.4068 56.9659 49.4977 55.875C47.6 54.7727 46.1398 53.2159 45.117 51.2045C44.0943 49.1818 43.583 46.8011 43.583 44.0625C43.583 41.3693 44.0943 39.0057 45.117 36.9716C46.1511 34.9261 47.5943 33.3352 49.4466 32.1989C51.2989 31.0511 53.475 30.4773 55.975 30.4773C57.5886 30.4773 59.1114 30.7386 60.5432 31.2614C61.9864 31.7727 63.2591 32.5682 64.3614 33.6477C65.475 34.7273 66.35 36.1023 66.9864 37.7727C67.6227 39.4318 67.9409 41.4091 67.9409 43.7045V45.5966H46.4807V41.4375H62.0261C62.0148 40.2557 61.7591 39.2045 61.2591 38.2841C60.7591 37.3523 60.0602 36.6193 59.1625 36.0852C58.2761 35.5511 57.242 35.2841 56.0602 35.2841C54.7989 35.2841 53.6909 35.5909 52.7364 36.2045C51.7818 36.8068 51.0375 37.6023 50.5034 38.5909C49.9807 39.5682 49.7136 40.642 49.7023 41.8125V45.4432C49.7023 46.9659 49.9807 48.2727 50.5375 49.3636C51.0943 50.4432 51.8727 51.2727 52.8727 51.8523C53.8727 52.4205 55.0432 52.7045 56.3841 52.7045C57.2818 52.7045 58.0943 52.5795 58.8216 52.3295C59.5489 52.0682 60.1795 51.6875 60.7136 51.1875C61.2477 50.6875 61.6511 50.0682 61.9239 49.3295L67.6852 49.9773C67.3216 51.5 66.6284 52.8295 65.6057 53.9659C64.5943 55.0909 63.2989 55.9659 61.7193 56.5909C60.1398 57.2045 58.333 57.5114 56.2989 57.5114Z" fill="#60E2FF"/>
</svg>
