<svg width="80" height="80" viewBox="0 0 80 80" fill="none" xmlns="http://www.w3.org/2000/svg">
<rect x="2" y="2" width="76" height="76" rx="8" stroke="#60E2FF" stroke-width="4"/>
<path d="M24.9261 57H18.1761L30.4659 22.0909H38.2727L50.5795 57H43.8295L34.5057 29.25H34.233L24.9261 57ZM25.1477 43.3125H43.5568V48.392H25.1477V43.3125ZM52.6923 57V30.8182H58.8628V57H52.6923ZM55.7946 27.1023C54.8173 27.1023 53.9764 26.7784 53.2719 26.1307C52.5673 25.4716 52.2151 24.6818 52.2151 23.7614C52.2151 22.8295 52.5673 22.0398 53.2719 21.392C53.9764 20.733 54.8173 20.4034 55.7946 20.4034C56.7832 20.4034 57.6241 20.733 58.3173 21.392C59.0219 22.0398 59.3741 22.8295 59.3741 23.7614C59.3741 24.6818 59.0219 25.4716 58.3173 26.1307C57.6241 26.7784 56.7832 27.1023 55.7946 27.1023Z" fill="#60E2FF"/>
</svg>
