<svg width="80" height="80" viewBox="0 0 80 80" fill="none" xmlns="http://www.w3.org/2000/svg">
<rect x="2" y="2" width="76" height="76" rx="8" stroke="#60E2FF" stroke-width="4"/>
<path d="M19.4432 57V22.0909H32.5341C35.2159 22.0909 37.4659 22.5909 39.2841 23.5909C41.1136 24.5909 42.4943 25.9659 43.4261 27.7159C44.3693 29.4545 44.8409 31.4318 44.8409 33.6477C44.8409 35.8864 44.3693 37.875 43.4261 39.6136C42.483 41.3523 41.0909 42.7216 39.25 43.7216C37.4091 44.7102 35.142 45.2045 32.4489 45.2045H23.7727V40.0057H31.5966C33.1648 40.0057 34.4489 39.733 35.4489 39.1875C36.4489 38.642 37.1875 37.892 37.6648 36.9375C38.1534 35.983 38.3977 34.8864 38.3977 33.6477C38.3977 32.4091 38.1534 31.3182 37.6648 30.375C37.1875 29.4318 36.4432 28.6989 35.4318 28.1761C34.4318 27.642 33.142 27.375 31.5625 27.375H25.767V57H19.4432ZM47.6611 57V30.8182H53.644V35.1818H53.9168C54.394 33.6705 55.2122 32.5057 56.3713 31.6875C57.5418 30.858 58.877 30.4432 60.377 30.4432C60.7179 30.4432 61.0986 30.4602 61.519 30.4943C61.9509 30.517 62.3088 30.5568 62.5929 30.6136V36.2898C62.3315 36.1989 61.9168 36.1193 61.3486 36.0511C60.7918 35.9716 60.252 35.9318 59.7293 35.9318C58.6043 35.9318 57.5929 36.1761 56.6952 36.6648C55.8088 37.142 55.1099 37.8068 54.5986 38.6591C54.0872 39.5114 53.8315 40.4943 53.8315 41.608V57H47.6611Z" fill="#60E2FF"/>
</svg>
