<svg width="80" height="80" viewBox="0 0 80 80" fill="none" xmlns="http://www.w3.org/2000/svg">
<rect x="2" y="2" width="76" height="76" rx="8" stroke="#60E2FF" stroke-width="4"/>
<path d="M15.4432 57V22.0909H28.5341C31.2159 22.0909 33.4659 22.5909 35.2841 23.5909C37.1136 24.5909 38.4943 25.9659 39.4261 27.7159C40.3693 29.4545 40.8409 31.4318 40.8409 33.6477C40.8409 35.8864 40.3693 37.875 39.4261 39.6136C38.483 41.3523 37.0909 42.7216 35.25 43.7216C33.4091 44.7102 31.142 45.2045 28.4489 45.2045H19.7727V40.0057H27.5966C29.1648 40.0057 30.4489 39.733 31.4489 39.1875C32.4489 38.642 33.1875 37.892 33.6648 36.9375C34.1534 35.983 34.3977 34.8864 34.3977 33.6477C34.3977 32.4091 34.1534 31.3182 33.6648 30.375C33.1875 29.4318 32.4432 28.6989 31.4318 28.1761C30.4318 27.642 29.142 27.375 27.5625 27.375H21.767V57H15.4432ZM64.3543 37.7386L58.7293 38.3523C58.5702 37.7841 58.2918 37.25 57.894 36.75C57.5077 36.25 56.9849 35.8466 56.3259 35.5398C55.6668 35.233 54.8599 35.0795 53.9054 35.0795C52.6213 35.0795 51.5418 35.358 50.6668 35.9148C49.8031 36.4716 49.377 37.1932 49.3884 38.0795C49.377 38.8409 49.6554 39.4602 50.2236 39.9375C50.8031 40.4148 51.7577 40.8068 53.0872 41.1136L57.5531 42.0682C60.0304 42.6023 61.8713 43.4489 63.0759 44.608C64.2918 45.767 64.9054 47.2841 64.9168 49.1591C64.9054 50.8068 64.4224 52.2614 63.4679 53.5227C62.5247 54.7727 61.2122 55.75 59.5304 56.4545C57.8486 57.1591 55.9168 57.5114 53.7349 57.5114C50.5304 57.5114 47.9509 56.8409 45.9963 55.5C44.0418 54.1477 42.877 52.267 42.502 49.858L48.519 49.2784C48.7918 50.4602 49.3713 51.3523 50.2577 51.9545C51.144 52.5568 52.2974 52.858 53.7179 52.858C55.1838 52.858 56.3599 52.5568 57.2463 51.9545C58.144 51.3523 58.5929 50.608 58.5929 49.7216C58.5929 48.9716 58.3031 48.3523 57.7236 47.8636C57.1554 47.375 56.269 47 55.0645 46.7386L50.5986 45.8011C48.0872 45.2784 46.2293 44.3977 45.0247 43.1591C43.8202 41.9091 43.2236 40.3295 43.2349 38.4205C43.2236 36.8068 43.6611 35.4091 44.5474 34.2273C45.4452 33.0341 46.6895 32.1136 48.2804 31.4659C49.8827 30.8068 51.7293 30.4773 53.8202 30.4773C56.8884 30.4773 59.3031 31.1307 61.0645 32.4375C62.8372 33.7443 63.9338 35.5114 64.3543 37.7386Z" fill="#60E2FF"/>
</svg>
