<svg width="70" height="70" viewBox="0 0 70 70" fill="none" xmlns="http://www.w3.org/2000/svg">
<path d="M14.2656 52H8.07813L19.3438 20H26.5L37.7813 52H31.5938L23.0469 26.5625H22.7969L14.2656 52ZM14.4688 39.4531H31.3438V44.1094H14.4688V39.4531ZM49.4406 52.4688C47.0344 52.4688 44.9562 51.9688 43.2062 50.9688C41.4667 49.9583 40.1281 48.5312 39.1906 46.6875C38.2531 44.8333 37.7844 42.651 37.7844 40.1406C37.7844 37.6719 38.2531 35.5052 39.1906 33.6406C40.1385 31.7656 41.4615 30.3073 43.1594 29.2656C44.8573 28.2135 46.8521 27.6875 49.1437 27.6875C50.6229 27.6875 52.0187 27.9271 53.3312 28.4062C54.6542 28.875 55.8208 29.6042 56.8313 30.5937C57.8521 31.5833 58.6542 32.8437 59.2375 34.375C59.8208 35.8958 60.1125 37.7083 60.1125 39.8125V41.5469H40.4406V37.7344H54.6906C54.6802 36.651 54.4458 35.6875 53.9875 34.8437C53.5292 33.9896 52.8885 33.3177 52.0656 32.8281C51.2531 32.3385 50.3052 32.0937 49.2219 32.0937C48.0656 32.0937 47.05 32.375 46.175 32.9375C45.3 33.4896 44.6177 34.2187 44.1281 35.125C43.649 36.0208 43.4042 37.0052 43.3937 38.0781V41.4062C43.3937 42.8021 43.649 44 44.1594 45C44.6698 45.9896 45.3833 46.75 46.3 47.2812C47.2167 47.8021 48.2896 48.0625 49.5188 48.0625C50.3417 48.0625 51.0865 47.9479 51.7531 47.7187C52.4198 47.4792 52.9979 47.1302 53.4875 46.6719C53.9771 46.2135 54.3469 45.6458 54.5969 44.9687L59.8781 45.5625C59.5448 46.9583 58.9094 48.1771 57.9719 49.2188C57.0448 50.25 55.8573 51.0521 54.4094 51.625C52.9615 52.1875 51.3052 52.4688 49.4406 52.4688Z" fill="#4FF4FF"/>
<rect x="2" y="2" width="66" height="66" rx="8" stroke="#4FF4FF" stroke-width="4"/>
</svg>
