<svg width="70" height="70" viewBox="0 0 70 70" fill="none" xmlns="http://www.w3.org/2000/svg">
<rect x="2" y="2" width="66" height="66" rx="8" stroke="#4FF4FF" stroke-width="4"/>
<path d="M21.2656 52H15.0781L26.3438 20H33.5L44.7813 52H38.5938L30.0469 26.5625H29.7969L21.2656 52ZM21.4688 39.4531H38.3438V44.1094H21.4688V39.4531ZM46.718 52V28H52.3742V52H46.718ZM49.5617 24.5938C48.6659 24.5938 47.8951 24.2969 47.2492 23.7031C46.6034 23.099 46.2805 22.375 46.2805 21.5312C46.2805 20.6771 46.6034 19.9531 47.2492 19.3594C47.8951 18.7552 48.6659 18.4531 49.5617 18.4531C50.468 18.4531 51.2388 18.7552 51.8742 19.3594C52.5201 19.9531 52.843 20.6771 52.843 21.5312C52.843 22.375 52.5201 23.099 51.8742 23.7031C51.2388 24.2969 50.468 24.5938 49.5617 24.5938Z" fill="#4FF4FF"/>
</svg>
