<svg width="70" height="70" viewBox="0 0 70 70" fill="none" xmlns="http://www.w3.org/2000/svg">
<rect x="2" y="2" width="66" height="66" rx="8" stroke="#4FF4FF" stroke-width="4"/>
<path d="M16.1562 52V20H28.1563C30.6146 20 32.6771 20.4583 34.3438 21.375C36.0208 22.2917 37.2865 23.5521 38.1406 25.1562C39.0052 26.75 39.4375 28.5625 39.4375 30.5937C39.4375 32.6458 39.0052 34.4687 38.1406 36.0625C37.276 37.6562 36 38.9115 34.3125 39.8281C32.625 40.7344 30.5469 41.1875 28.0781 41.1875H20.125V36.4219H27.2969C28.7344 36.4219 29.9115 36.1719 30.8281 35.6719C31.7448 35.1719 32.4219 34.4844 32.8594 33.6094C33.3073 32.7344 33.5313 31.7292 33.5313 30.5937C33.5313 29.4583 33.3073 28.4583 32.8594 27.5938C32.4219 26.7292 31.7396 26.0573 30.8125 25.5781C29.8958 25.0885 28.7135 24.8438 27.2656 24.8438H21.9531V52H16.1562ZM42.0227 52V28H47.507V32H47.757C48.1945 30.6146 48.9445 29.5469 50.007 28.7969C51.0799 28.0365 52.3039 27.6562 53.6789 27.6562C53.9914 27.6562 54.3404 27.6719 54.7258 27.7031C55.1216 27.724 55.4497 27.7604 55.7102 27.8125V33.0156C55.4706 32.9323 55.0904 32.8594 54.5695 32.7969C54.0591 32.724 53.5643 32.6875 53.0852 32.6875C52.0539 32.6875 51.1268 32.9115 50.3039 33.3594C49.4914 33.7969 48.8508 34.4062 48.382 35.1875C47.9133 35.9687 47.6789 36.8698 47.6789 37.8906V52H42.0227Z" fill="#4FF4FF"/>
</svg>
