<svg width="70" height="70" viewBox="0 0 70 70" fill="none" xmlns="http://www.w3.org/2000/svg">
<rect x="2" y="2" width="66" height="66" rx="8" stroke="#4FF4FF" stroke-width="4"/>
<path d="M12.1562 52V20H24.1563C26.6146 20 28.6771 20.4583 30.3438 21.375C32.0208 22.2917 33.2865 23.5521 34.1406 25.1562C35.0052 26.75 35.4375 28.5625 35.4375 30.5937C35.4375 32.6458 35.0052 34.4687 34.1406 36.0625C33.276 37.6562 32 38.9115 30.3125 39.8281C28.625 40.7344 26.5469 41.1875 24.0781 41.1875H16.125V36.4219H23.2969C24.7344 36.4219 25.9115 36.1719 26.8281 35.6719C27.7448 35.1719 28.4219 34.4844 28.8594 33.6094C29.3073 32.7344 29.5313 31.7292 29.5313 30.5937C29.5313 29.4583 29.3073 28.4583 28.8594 27.5938C28.4219 26.7292 27.7396 26.0573 26.8125 25.5781C25.8958 25.0885 24.7135 24.8438 23.2656 24.8438H17.9531V52H12.1562ZM56.9914 34.3438L51.8352 34.9062C51.6893 34.3854 51.4341 33.8958 51.0695 33.4375C50.7154 32.9792 50.2362 32.6094 49.632 32.3281C49.0279 32.0469 48.2883 31.9062 47.4133 31.9062C46.2362 31.9062 45.2466 32.1615 44.4445 32.6719C43.6529 33.1823 43.2622 33.8437 43.2727 34.6562C43.2622 35.3542 43.5174 35.9219 44.0383 36.3594C44.5695 36.7969 45.4445 37.1562 46.6633 37.4375L50.757 38.3125C53.0279 38.8021 54.7154 39.5781 55.8195 40.6406C56.9341 41.7031 57.4966 43.0937 57.507 44.8125C57.4966 46.3229 57.0539 47.6562 56.1789 48.8125C55.3143 49.9583 54.1112 50.8542 52.5695 51.5C51.0279 52.1458 49.257 52.4688 47.257 52.4688C44.3195 52.4688 41.9549 51.8542 40.1633 50.625C38.3716 49.3854 37.3039 47.6615 36.9602 45.4531L42.4758 44.9219C42.7258 46.0052 43.257 46.8229 44.0695 47.375C44.882 47.9271 45.9393 48.2031 47.2414 48.2031C48.5852 48.2031 49.6633 47.9271 50.4758 47.375C51.2987 46.8229 51.7102 46.1406 51.7102 45.3281C51.7102 44.6406 51.4445 44.0729 50.9133 43.625C50.3924 43.1771 49.5799 42.8333 48.4758 42.5937L44.382 41.7344C42.0799 41.2552 40.3768 40.4479 39.2727 39.3125C38.1685 38.1667 37.6216 36.7187 37.632 34.9687C37.6216 33.4896 38.0227 32.2083 38.8352 31.125C39.6581 30.0312 40.7987 29.1875 42.257 28.5937C43.7258 27.9896 45.4185 27.6875 47.3352 27.6875C50.1477 27.6875 52.3612 28.2865 53.9758 29.4844C55.6008 30.6823 56.606 32.3021 56.9914 34.3438Z" fill="#4FF4FF"/>
</svg>
