<svg width="69" height="75" viewBox="0 0 69 75" fill="none" xmlns="http://www.w3.org/2000/svg">
<path d="M1.6142 9.92297C2.50778 9.98062 3.45901 10.0671 4.52554 10.0671H18.5057C19.4857 10.0671 20.5234 10.0094 21.2152 9.92297V10.7589H23.8095V11.0472H22.6565V12.2002H23.8095V14.2467C23.0312 14.2179 22.1665 14.1603 21.0999 14.1603H14.7296V15.3709H13.8649V15.6592H13.2884V17.3887H13.8649V17.6769H15.0179V18.3975H23.1465C23.7519 18.3975 25.3661 18.3111 26.1732 18.2534V19.4064H25.0202V19.6947H25.5967L25.6255 21.4242H23.6077V22.5772H25.049V22.7213C24.1842 22.606 22.743 22.6348 22.1088 22.6348H13.8649V22.8654H13.0001V24.0184H15.3061V24.8832H13.0001V26.2668C13.0001 27.9098 13.9513 28.3134 16.0844 28.3134C18.5633 28.3134 21.2152 28.1404 23.4348 27.9098L23.406 28.3422H23.9825L23.896 29.7834H23.3195L23.2042 31.5129H24.0689L24.0113 32.3777H25.1643L25.1355 32.6659C23.4636 32.7524 19.9181 32.8389 17.2374 32.8389C15.5944 32.8389 14.2972 32.6659 13.3172 32.3777H12.1642C11.4436 32.1759 10.8959 31.8588 10.4635 31.5129H9.59875C9.02224 31.0517 8.67634 30.4752 8.44574 29.7834H9.02224C8.90695 29.3511 8.82047 28.861 8.79164 28.3422H8.21514C8.18632 28.1116 8.18632 27.881 8.18632 27.6504V24.8832H10.4923V24.0184H8.18632V22.8654H9.05107V22.6348H4.84261C3.97786 22.6348 2.36366 22.7213 1.44125 22.779V22.5772H0V21.4242H2.01775V19.6947H1.44125V19.4064H2.59426V18.2246C3.43018 18.2822 5.04439 18.3975 5.99561 18.3975H10.2041V17.6769H9.05107V17.3887H8.47457V15.6592H9.05107V15.3709H9.91582V14.1603H7.11979C6.05326 14.1603 5.10204 14.1891 4.20846 14.2467V12.2002H3.05546V11.0472H4.20846V10.7589H1.6142V9.92297Z" fill="url(#paint0_linear_445_25)"/>
<path d="M30.2375 40.6146C30.0934 41.0758 29.9204 41.9117 29.8916 42.1423C29.8339 42.4594 29.7763 42.8629 29.7186 43.2953H28.8539C28.8251 43.3818 28.8251 43.4971 28.7962 43.5835H28.2197C28.1621 44.1024 28.0468 44.7077 27.9603 45.313H28.5368C28.5368 45.3995 28.508 45.5148 28.508 45.6013H29.661C29.5745 46.149 29.488 46.7543 29.4016 47.3308H28.2486C28.2197 47.4173 28.2197 47.5326 28.1909 47.6191H28.7674C28.6809 48.1956 28.5945 48.7721 28.508 49.3486H26.4902C26.4326 49.7521 26.3749 50.1268 26.3173 50.5016H27.7585C27.7297 50.588 27.7297 50.7033 27.7009 50.7898H26.8361C26.7497 51.1934 26.692 51.5681 26.6344 51.9428H28.9404C28.8827 52.2311 28.8539 52.5193 28.7962 52.8076H26.4902C26.4038 53.2111 26.3461 53.5858 26.2885 53.9317H28.9404C30.0357 53.9317 31.0446 53.7876 31.794 53.6723V56.2666H32.3705V57.7078H31.794V58.7455C30.9581 58.6302 29.661 58.5726 28.9404 58.5726H9.85817C8.93577 58.5726 7.84042 58.6302 6.83154 58.7455V57.7078H7.40804V56.2666H6.83154V53.6723C7.78277 53.8453 8.90695 53.9317 9.85817 53.9317H21.1576C21.2152 53.5858 21.2729 53.2111 21.3594 52.8076H23.6654C23.723 52.5193 23.7519 52.2311 23.8095 51.9428H21.5035C21.5612 51.5681 21.6188 51.1934 21.6765 50.7898H22.5412C22.57 50.7033 22.57 50.588 22.5989 50.5016H21.1576C21.2152 50.1268 21.2729 49.7233 21.3305 49.3486H23.3483C23.4348 48.7721 23.5213 48.1667 23.6077 47.6191H23.0312C23.0601 47.5326 23.0601 47.4173 23.0889 47.3308H24.2419C24.3284 46.7255 24.4148 46.1202 24.4725 45.6013H23.3195C23.3483 45.5148 23.3483 45.3995 23.3483 45.313H22.7718C22.8583 44.6789 22.9159 44.1312 22.9448 43.7565H13.7784C12.5677 43.7565 11.3283 43.8141 10.2329 43.9006V43.5835H10.8094V43.2953H11.6742V40.1245H10.5212V39.0004C11.5012 39.1157 13.0578 39.231 14.0378 39.231H22.2818C22.9159 39.231 24.0689 39.1445 24.8472 38.9715H26.0002C26.2596 38.9139 26.4614 38.8562 26.6055 38.7986L26.9514 38.9715H25.7984L28.1044 40.1245H29.2574L30.2375 40.6146Z" fill="url(#paint1_linear_445_25)"/>
<path d="M55.1495 2.94016C55.1495 3.02663 55.1495 3.14193 55.1495 3.22841C55.1495 3.51666 55.1495 3.80491 55.1784 4.09316H56.3314C56.3314 4.35258 56.3314 4.61201 56.3314 4.90026H59.3868C60.4245 4.90026 61.9234 4.75614 62.6729 4.64084V7.26392H61.8081V7.55217H61.2316V9.22402C60.1939 9.1952 59.0121 9.16637 58.205 9.16637H55.0054C55.0054 9.19519 55.0054 9.25285 55.0054 9.28167H55.5819C55.5819 9.36815 55.5819 9.45462 55.6107 9.56992H56.7637C56.7637 10.1464 56.7926 10.7229 56.7926 11.2994H55.6396C55.6396 11.3859 55.6396 11.5012 55.6396 11.5877H56.2161C56.2449 12.1642 56.2449 12.7407 56.2449 13.3172H54.2271C54.256 13.6919 54.256 14.0955 54.256 14.4702H55.6972C55.6972 14.5567 55.6972 14.672 55.6972 14.7584H54.8325C54.8613 15.1332 54.8613 15.5367 54.8613 15.9114H57.1673C57.1961 16.1997 57.1961 16.4879 57.1961 16.7762H54.8901C54.9189 17.9292 54.9189 19.0822 54.9478 20.2352H55.5243C55.5531 20.6964 55.5531 21.1864 55.5531 21.6476V21.6764H54.9766C55.0054 22.3683 54.8613 22.9159 54.6307 23.406H55.4954C55.2937 23.7519 55.0342 24.0401 54.7172 24.2707H55.8702C55.2648 24.6743 54.4577 24.9049 53.42 24.9049C51.5176 24.9049 49.961 24.8472 48.2027 24.7319L48.1739 24.2707H47.0209L46.9344 23.406H46.0696L45.9255 21.6764H46.502L46.3579 20.2352H45.7814V20.2064C45.839 20.2064 45.8967 20.2352 45.9543 20.2352H46.5308C47.7703 20.4081 49.2116 20.5234 50.0763 20.5234C50.3934 20.5234 50.6528 20.437 50.797 20.2352H50.2204C50.3646 20.0334 50.4511 19.7452 50.4511 19.3128C50.4511 18.5633 50.4511 17.6986 50.4511 16.7762H52.7571C52.7571 16.4879 52.7571 16.1997 52.7571 15.9114H50.4511C50.4511 15.5367 50.4511 15.162 50.4511 14.7584H51.3158C51.3158 14.672 51.3158 14.5567 51.3158 14.4702H49.8745C49.8745 14.0955 49.8745 13.7207 49.8745 13.3172H51.8923C51.8635 13.2019 51.8635 13.1154 51.8635 13.0001C51.777 13.1154 51.6905 13.2019 51.6041 13.3172H49.5863C49.2692 13.6919 48.9521 14.0955 48.5774 14.4702H50.0187C49.9322 14.5567 49.8457 14.672 49.7592 14.7584H48.8945C48.5198 15.1332 48.145 15.5367 47.7415 15.9114H50.0475C49.7304 16.1997 49.4133 16.4879 49.0963 16.7762H46.7903C45.4355 18.0157 43.9078 19.1975 42.3224 20.2352H42.8989C42.1494 20.754 41.3712 21.2441 40.5929 21.6764H40.0164C39.7281 21.8494 39.4111 22.0223 39.1228 22.1665L38.6904 21.6764H39.2669L37.9986 20.2352H37.4221L35.9232 18.5345C37.0762 17.9868 38.2004 17.4103 39.2381 16.7762H41.5441C42.0341 16.4879 42.4953 16.1997 42.9277 15.9114H40.6217C41.1982 15.5367 41.7747 15.162 42.3224 14.7584H43.1871C43.3313 14.672 43.4466 14.5567 43.5907 14.4702H42.1494C42.6683 14.0955 43.1583 13.6919 43.6195 13.3172H45.6373C46.3291 12.7407 46.9632 12.1642 47.5685 11.5877H46.992C47.0785 11.5012 47.1938 11.3859 47.2803 11.2994H48.4333C48.981 10.7229 49.4998 10.1464 49.961 9.56992H48.808C48.8657 9.45462 48.9521 9.36815 49.0098 9.28167H48.4333C48.4621 9.25285 48.4909 9.19519 48.5198 9.16637H41.6306C40.5352 9.16637 39.094 9.22402 38.0274 9.28167V7.55217H38.6039V7.26392H39.4687V4.66966C40.2758 4.78496 41.9188 4.90026 42.9565 4.90026H51.95C51.95 4.61201 51.9211 4.35258 51.9211 4.09316H50.7681C50.7393 3.80491 50.7393 3.51666 50.7105 3.22841C50.7105 3.14193 50.7105 3.02663 50.6817 2.94016H51.8347C51.8347 2.85368 51.8347 2.73838 51.8058 2.65191H49.2116C49.1827 2.13305 49.1539 1.64303 49.1251 1.21065H50.8546C50.8546 1.12418 50.8258 1.00888 50.8258 0.922402H52.5553C52.4976 0.605327 52.4688 0.28825 52.4112 0H57.3402C57.2826 0.28825 57.2538 0.605327 57.2249 0.922402H55.4954C55.4954 1.00888 55.4666 1.12418 55.4666 1.21065H53.7371C53.7083 1.70068 53.6795 2.1907 53.7083 2.65191H56.3025C56.3025 2.73838 56.3025 2.85368 56.3025 2.94016H55.1495Z" fill="url(#paint2_linear_445_25)"/>
<path d="M55.1062 34.2514C55.0774 34.0497 55.0198 33.8479 54.9621 33.6461H60.4965C60.4677 33.8191 60.4389 34.0208 60.41 34.2514H58.6805C58.6805 34.3379 58.6517 34.4532 58.6517 34.5397H56.9222C56.8646 35.0009 56.8357 35.4909 56.8069 35.9809H59.4012C59.4012 36.0674 59.4012 36.1827 59.4012 36.2692H58.2482C58.2193 36.6728 58.2193 37.0475 58.2193 37.3357V37.4222H59.3723V40.0741H65.195C66.7227 40.0741 68.0199 39.9588 68.7117 39.8723V40.593H67.8469V40.8812H67.2704V42.6107H67.8469V42.899H68.9999V44.6285H67.8469V44.6573C67.7316 44.6573 67.6163 44.6285 67.4722 44.6285H68.6252C67.8181 44.5708 66.5498 44.5132 65.4544 44.5132H59.6318C59.6318 44.542 59.6318 44.5996 59.6318 44.6285H58.4788C58.4788 44.7149 58.4788 44.8014 58.4499 44.9167H59.0264C58.9976 45.4932 58.94 46.0697 58.8823 46.6462H56.8646C56.8069 47.0209 56.7493 47.4245 56.6916 47.7992H58.1329C58.104 47.8857 58.104 48.001 58.0752 48.0875H57.2105C57.124 48.491 57.0375 48.8658 56.9222 49.2405H59.2282C59.1706 49.5287 59.0553 49.817 58.9688 50.1052H56.6628C56.2592 51.3159 55.6827 52.4689 54.9333 53.5642H55.5098C55.1927 54.0543 54.818 54.5443 54.3856 55.0055H53.8091C53.2903 55.6108 52.6849 56.1873 52.022 56.735H52.8867C52.512 57.0232 52.1661 57.3115 51.7625 57.5997H52.9155C52.4255 57.9745 51.8778 58.3204 51.3013 58.6663L49.8601 57.5997H48.7071L47.5541 56.735H46.6893L44.931 55.4379C45.2481 55.2937 45.5363 55.1496 45.8246 55.0055H46.4011C47.2658 54.5731 48.0153 54.0831 48.7071 53.5642H48.1306C49.4853 52.5265 50.4654 51.3735 51.186 50.1052H53.492C53.6362 49.817 53.7803 49.5287 53.9244 49.2405H51.6184C51.7914 48.8658 51.9355 48.491 52.0796 48.0875H52.9444C52.9732 48.001 53.002 47.8857 53.0308 47.7992H51.5896C51.7049 47.4245 51.7914 47.0498 51.8778 46.6462H53.8956C54.0109 46.0697 54.0974 45.4932 54.155 44.9167H53.5785C53.5785 44.8014 53.6073 44.7149 53.6073 44.6285H54.7603C54.7603 44.5996 54.7603 44.542 54.7603 44.5132H48.0153C46.9776 44.5132 45.9975 44.5708 45.1328 44.6285H43.9798C43.7203 44.6573 43.4609 44.6573 43.2303 44.6861V44.6285H44.3833V42.899H43.2303V42.6107H42.6538V40.8812H43.2303V40.593H44.0951V39.8435C45.1328 39.9588 46.3722 40.0741 47.6117 40.0741H54.5297V37.4222H53.3767V37.3069C53.3767 36.9898 53.3767 36.6439 53.3479 36.2692H54.5009C54.5009 36.1827 54.5009 36.0674 54.4721 35.9809H51.8778C51.849 35.5197 51.7914 35.0009 51.7049 34.5397H53.4344C53.4056 34.4532 53.4056 34.3379 53.3767 34.2514H55.1062Z" fill="url(#paint3_linear_445_25)"/>
<path d="M39.7497 20.0551C39.7497 20.3433 39.7497 20.6604 39.7497 20.9775V21.2081H40.9027V24.3788H40.0379V24.6671H39.4614V26.3966H40.0379V26.6848H41.1909V27.2613C41.1909 27.6649 41.1909 28.0396 41.1621 28.4144H40.0091C40.0091 28.5008 40.0091 28.6161 40.0091 28.7026H40.5856C40.5568 29.3079 40.4991 29.8844 40.4415 30.4321H38.4237C38.3949 30.8357 38.3372 31.2104 38.2796 31.5851H39.7208C39.692 31.6716 39.692 31.7869 39.6632 31.8734H38.7984C38.7119 32.2769 38.6255 32.6516 38.539 33.0264H40.845C40.7585 33.3146 40.6721 33.6029 40.5856 33.8911H38.2796C37.8184 35.2747 37.1842 36.3701 36.4059 37.3501H36.9824C36.723 37.6672 36.4636 37.9554 36.2042 38.2437C36.0312 38.4166 35.8294 38.6184 35.6277 38.7914H35.0512C34.3305 39.4255 33.5234 40.0309 32.6875 40.5209H33.5523C33.0046 40.838 32.4857 41.1262 31.9381 41.3856H33.0911C32.1975 41.818 31.3327 42.1639 30.5833 42.3945L29.6321 41.3856H28.4791L27.672 40.5209H26.8072L25.1642 38.7914H25.7407L25.4812 38.5319C26.836 38.2437 28.0467 37.8401 29.1132 37.3501H28.5367C29.8338 36.7448 30.9292 35.9953 31.8804 35.0153C32.2263 34.6406 32.5434 34.2658 32.774 33.8911H35.08C35.2818 33.6029 35.4259 33.3146 35.5988 33.0264H33.2928C33.4658 32.6516 33.6099 32.2769 33.7252 31.8734H34.59C34.6188 31.7869 34.6476 31.6716 34.6764 31.5851H33.2352C33.3217 31.2104 33.4081 30.8357 33.4658 30.4321H35.4835C35.5412 29.9133 35.5988 29.3368 35.6277 28.7026H35.0512C35.0512 28.6161 35.0512 28.5008 35.0512 28.4144H36.2042C36.233 27.9532 36.233 27.4631 36.233 26.9443V26.6848H35.08V26.3966H34.5035V24.6671H35.08V24.3788H35.9447V21.2081H34.7917V20.9775C34.7917 20.6604 34.7917 20.3433 34.7629 20.0551H35.9159C35.9159 19.9686 35.9159 19.8533 35.9159 19.7668H33.3217C33.2928 19.248 33.264 18.758 33.2064 18.3256H34.9359C34.9359 18.2103 34.9359 18.1238 34.907 18.0373H36.6365C36.6365 17.9797 36.6077 17.922 36.6077 17.8644H41.8827C41.8827 17.922 41.8827 17.9797 41.8827 18.0373H40.1532C40.1244 18.1238 40.1244 18.2103 40.1244 18.3256H38.3949C38.366 18.758 38.3372 19.248 38.3084 19.7668H40.9027C40.9027 19.8533 40.9027 19.9686 40.9027 20.0551H39.7497ZM26.4036 20.0551C26.4036 20.1704 26.4036 20.2857 26.4036 20.401V21.2081H27.5566V24.3788H26.6919V24.6671H26.1154V26.3966H26.6919V26.6848H27.8449V28.4144H26.6919V28.7026H27.2684V30.2015C27.2684 30.288 27.2684 30.3456 27.2684 30.4321H25.2506C25.2506 30.778 25.2795 31.1527 25.3083 31.5851H26.7495C26.7495 31.6716 26.7495 31.7869 26.7495 31.8734H25.8848C25.8848 32.2481 25.9136 32.594 25.9424 32.8822H20.8692C20.8692 32.6516 20.8981 32.2769 20.9269 31.8734H21.7916C21.7916 31.7869 21.8205 31.6716 21.8205 31.5851H20.3792C20.408 31.2104 20.4369 30.8068 20.4369 30.4321H22.4546C22.4546 30.3456 22.4546 30.2592 22.4546 30.1727V28.7026H21.8781V28.4144H23.0311V26.6848H21.8781V26.3966H21.3016V24.6671H21.8781V24.3788H22.7429V21.2081H21.5899V20.401C21.5899 20.2857 21.5899 20.1704 21.5899 20.0551H22.7429C22.7429 19.9686 22.7429 19.8533 22.7429 19.7668H20.1486C20.1198 19.3056 20.091 18.7868 20.0621 18.3256H21.7916C21.7916 18.2679 21.7628 18.1815 21.7628 18.1238H26.8072C26.8072 18.1815 26.8072 18.2679 26.7784 18.3256H25.0489C25.02 18.7868 24.9624 19.2192 24.9624 19.7668H27.5566C27.5566 19.8533 27.5566 19.9686 27.5566 20.0551H26.4036Z" fill="url(#paint4_linear_445_25)"/>
<path d="M42.4881 50.7537C42.4593 51.2149 42.4304 51.5897 42.4304 52.0797V52.195H45.0247V52.4832H43.8717V53.6362H45.0247V54.011H49.2331C50.5014 54.011 51.2797 53.8668 51.8562 53.6651L54.8829 55.5099C54.7676 55.8558 54.6523 56.3458 54.537 56.807H53.6722C53.6434 56.8935 53.6146 57.0088 53.5857 57.0952H53.0092C52.9228 57.4988 52.8651 57.8735 52.8075 58.1041C52.7786 58.3347 52.721 58.5941 52.6633 58.8247H53.2398C53.2398 58.9112 53.211 59.0265 53.1822 59.113H54.3352C54.2199 59.7183 54.0758 60.2948 53.9316 60.8425H52.7786C52.7498 60.929 52.721 61.0443 52.6922 61.1308H53.2687C53.0957 61.7361 52.9228 62.2838 52.721 62.8603H50.7032C50.5591 63.235 50.415 63.6385 50.242 64.0133H51.6833C51.6545 64.0997 51.5968 64.215 51.568 64.3015H50.7032C50.5591 64.6762 50.3861 65.0798 50.1844 65.4545H52.4904C52.4039 65.6275 52.2886 65.8292 52.2021 66.0022C52.1445 66.1175 52.0868 66.204 52.0292 66.3193H49.7232C49.0314 67.5876 48.1378 68.7406 47.1001 69.7783H47.6766C47.1866 70.2971 46.6389 70.7583 46.0912 71.2195H45.5147C44.7076 71.8537 43.8429 72.4302 42.9493 72.949H43.814C43.2375 73.2661 42.661 73.5544 42.0557 73.8138H43.2087C42.171 74.275 41.0757 74.6497 39.9515 74.938L38.9714 73.8138H37.8184L37.069 72.949H36.2042L34.7341 71.2195H35.3106L34.8783 70.7295C36.0313 70.5277 37.386 70.1818 38.5679 69.7783H37.9914C38.3373 69.663 38.6832 69.5188 39.0002 69.4035C40.6145 68.7406 42.2863 67.7317 43.6699 66.3193H45.9759C46.2353 66.0598 46.5236 65.7716 46.783 65.4545H44.477C44.5923 65.3104 44.7076 65.1663 44.8229 64.9933C44.9959 64.7627 45.14 64.5321 45.2841 64.3015H46.1489C46.2065 64.215 46.2642 64.0997 46.3218 64.0133H44.8806C45.0823 63.6385 45.2841 63.2638 45.4571 62.8603H47.4748C47.7054 62.3126 47.9072 61.7361 48.0801 61.1308H47.5036C47.5325 61.0443 47.5613 60.929 47.5901 60.8425H48.7431C48.8872 60.2948 49.0025 59.7183 49.1178 59.113H47.9648C47.9937 59.0265 47.9937 58.9112 48.0225 58.8247H47.446C47.4748 58.5941 47.5325 58.3635 47.5613 58.1329H34.2729V58.8247H34.8494V59.113H36.0024V60.8425H34.8494V61.1308H35.4259V61.8226C35.4259 62.1396 35.4259 62.4855 35.4548 62.8603H33.437C33.437 63.2638 33.4658 63.6674 33.4947 64.0133H34.9359C34.9359 64.0709 34.9647 64.1286 34.9647 64.1862H30.151C30.151 64.1286 30.151 64.0709 30.1798 64.0133H28.7385C28.7674 63.6385 28.7962 63.2638 28.825 62.8603H30.8428C30.8428 62.3991 30.8716 61.909 30.8716 61.4478V61.1308H30.2951V60.8425H31.4481V59.113H30.2951V58.8247H29.7186V57.0952H30.2951V56.807H31.1598V56.4899C31.1598 55.8269 31.131 54.5875 31.0157 53.8668C32.0822 53.9821 32.947 54.011 34.1 54.011H40.1244V53.6362H38.9714V52.4832H40.1244V52.195H37.5302V52.0797C37.5302 51.5897 37.5302 51.2149 37.4725 50.7537H39.202C39.202 50.6673 39.202 50.552 39.1732 50.4655H40.9027C40.8739 50.1196 40.8162 49.7737 40.7586 49.3125H39.0291C39.0291 49.2548 39.0002 49.1972 39.0002 49.1395H44.3905C44.3905 49.1972 44.3905 49.2548 44.3617 49.3125H46.0912C46.0624 49.7737 46.0047 50.1196 45.9759 50.4655H44.2464C44.2176 50.552 44.2176 50.6673 44.2176 50.7537H42.4881Z" fill="url(#paint5_linear_445_25)"/>
<defs>
<linearGradient id="paint0_linear_445_25" x1="-1.44125" y1="18.0012" x2="27.3838" y2="18.0012" gradientUnits="userSpaceOnUse">
<stop stop-color="#4FF4FF"/>
<stop offset="1" stop-color="#A7A0FF"/>
</linearGradient>
<linearGradient id="paint1_linear_445_25" x1="5.76502" y1="44.5744" x2="31.8877" y2="44.5744" gradientUnits="userSpaceOnUse">
<stop stop-color="#4FF4FF"/>
<stop offset="1" stop-color="#A7A0FF"/>
</linearGradient>
<linearGradient id="paint2_linear_445_25" x1="35.4908" y1="9.8942" x2="64.3159" y2="9.8942" gradientUnits="userSpaceOnUse">
<stop stop-color="#A7A0FF"/>
<stop offset="1" stop-color="#FB4FFF"/>
</linearGradient>
<linearGradient id="paint3_linear_445_25" x1="40.8955" y1="43.2232" x2="69.7205" y2="43.2232" gradientUnits="userSpaceOnUse">
<stop stop-color="#A7A0FF"/>
<stop offset="1" stop-color="#FB4FFF"/>
</linearGradient>
<linearGradient id="paint4_linear_445_25" x1="16.5743" y1="29.2611" x2="49.0025" y2="29.2611" gradientUnits="userSpaceOnUse">
<stop stop-color="#94B3FF"/>
<stop offset="1" stop-color="#BC8DFF"/>
</linearGradient>
<linearGradient id="paint5_linear_445_25" x1="27.3837" y1="58.5365" x2="54.4072" y2="58.5365" gradientUnits="userSpaceOnUse">
<stop stop-color="#A1A6FF"/>
<stop offset="1" stop-color="#CD7DFF"/>
</linearGradient>
</defs>
</svg>
