<svg width="327" height="130" viewBox="0 0 327 130" fill="none" xmlns="http://www.w3.org/2000/svg">
<path d="M120 98L137 106H326.5" stroke="url(#paint0_linear_445_42)" stroke-width="7"/>
<circle cx="65" cy="65" r="62.5" stroke="url(#paint1_linear_445_42)" stroke-width="5"/>
<circle cx="65" cy="65" r="47.5" stroke="url(#paint2_linear_445_42)" stroke-width="5"/>
<path d="M110 57C110 36.0132 92.9868 19 72 19" stroke="url(#paint3_linear_445_42)" stroke-width="12"/>
<path d="M31.6142 42.923C32.5078 42.9806 33.459 43.0671 34.5255 43.0671H48.5057C49.4857 43.0671 50.5234 43.0094 51.2152 42.923V43.7589H53.8095V44.0472H52.6565V45.2002H53.8095V47.2467C53.0312 47.2179 52.1665 47.1603 51.0999 47.1603H44.7296V48.3709H43.8649V48.6592H43.2884V50.3887H43.8649V50.6769H45.0179V51.3975H53.1465C53.7519 51.3975 55.3661 51.3111 56.1732 51.2534V52.4064H55.0202V52.6947H55.5967L55.6255 54.4242H53.6077V55.5772H55.049V55.7213C54.1842 55.606 52.743 55.6348 52.1088 55.6348H43.8649V55.8654H43.0001V57.0184H45.3061V57.8832H43.0001V59.2668C43.0001 60.9098 43.9513 61.3134 46.0844 61.3134C48.5633 61.3134 51.2152 61.1404 53.4348 60.9098L53.406 61.3422H53.9825L53.896 62.7834H53.3195L53.2042 64.5129H54.0689L54.0113 65.3777H55.1643L55.1355 65.6659C53.4636 65.7524 49.9181 65.8389 47.2374 65.8389C45.5944 65.8389 44.2972 65.6659 43.3172 65.3777H42.1642C41.4436 65.1759 40.8959 64.8588 40.4635 64.5129H39.5987C39.0222 64.0517 38.6763 63.4752 38.4457 62.7834H39.0222C38.9069 62.3511 38.8205 61.861 38.7916 61.3422H38.2151C38.1863 61.1116 38.1863 60.881 38.1863 60.6504V57.8832H40.4923V57.0184H38.1863V55.8654H39.0511V55.6348H34.8426C33.9779 55.6348 32.3637 55.7213 31.4413 55.779V55.5772H30V54.4242H32.0178V52.6947H31.4413V52.4064H32.5943V51.2246C33.4302 51.2822 35.0444 51.3975 35.9956 51.3975H40.2041V50.6769H39.0511V50.3887H38.4746V48.6592H39.0511V48.3709H39.9158V47.1603H37.1198C36.0533 47.1603 35.102 47.1891 34.2085 47.2467V45.2002H33.0555V44.0472H34.2085V43.7589H31.6142V42.923Z" fill="url(#paint4_linear_445_42)"/>
<path d="M60.2375 73.6146C60.0934 74.0758 59.9204 74.9117 59.8916 75.1423C59.8339 75.4594 59.7763 75.8629 59.7186 76.2953H58.8539C58.8251 76.3818 58.8251 76.4971 58.7962 76.5835H58.2197C58.1621 77.1024 58.0468 77.7077 57.9603 78.313H58.5368C58.5368 78.3995 58.508 78.5148 58.508 78.6013H59.661C59.5745 79.149 59.488 79.7543 59.4016 80.3308H58.2486C58.2197 80.4173 58.2197 80.5326 58.1909 80.6191H58.7674C58.6809 81.1956 58.5945 81.7721 58.508 82.3486H56.4902C56.4326 82.7521 56.3749 83.1268 56.3173 83.5016H57.7585C57.7297 83.588 57.7297 83.7033 57.7009 83.7898H56.8361C56.7497 84.1934 56.692 84.5681 56.6344 84.9428H58.9404C58.8827 85.2311 58.8539 85.5193 58.7962 85.8076H56.4902C56.4038 86.2111 56.3461 86.5858 56.2885 86.9317H58.9404C60.0357 86.9317 61.0446 86.7876 61.794 86.6723V89.2666H62.3705V90.7078H61.794V91.7455C60.9581 91.6302 59.661 91.5726 58.9404 91.5726H39.8582C38.9358 91.5726 37.8404 91.6302 36.8315 91.7455V90.7078H37.408V89.2666H36.8315V86.6723C37.7828 86.8453 38.9069 86.9317 39.8582 86.9317H51.1576C51.2152 86.5858 51.2729 86.2111 51.3594 85.8076H53.6654C53.723 85.5193 53.7519 85.2311 53.8095 84.9428H51.5035C51.5612 84.5681 51.6188 84.1934 51.6765 83.7898H52.5412C52.57 83.7033 52.57 83.588 52.5989 83.5016H51.1576C51.2152 83.1268 51.2729 82.7233 51.3305 82.3486H53.3483C53.4348 81.7721 53.5213 81.1667 53.6077 80.6191H53.0312C53.0601 80.5326 53.0601 80.4173 53.0889 80.3308H54.2419C54.3284 79.7255 54.4148 79.1202 54.4725 78.6013H53.3195C53.3483 78.5148 53.3483 78.3995 53.3483 78.313H52.7718C52.8583 77.6789 52.9159 77.1312 52.9448 76.7565H43.7784C42.5677 76.7565 41.3283 76.8141 40.2329 76.9006V76.5835H40.8094V76.2953H41.6742V73.1245H40.5212V72.0004C41.5012 72.1157 43.0578 72.231 44.0378 72.231H52.2818C52.9159 72.231 54.0689 72.1445 54.8472 71.9715H56.0002C56.2596 71.9139 56.4614 71.8562 56.6055 71.7986L56.9514 71.9715H55.7984L58.1044 73.1245H59.2574L60.2375 73.6146Z" fill="url(#paint5_linear_445_42)"/>
<path d="M85.1495 35.9402C85.1495 36.0266 85.1495 36.1419 85.1495 36.2284C85.1495 36.5167 85.1495 36.8049 85.1784 37.0932H86.3314C86.3314 37.3526 86.3314 37.612 86.3314 37.9003H89.3868C90.4245 37.9003 91.9234 37.7561 92.6729 37.6408V40.2639H91.8081V40.5522H91.2316V42.224C90.1939 42.1952 89.0121 42.1664 88.205 42.1664H85.0054C85.0054 42.1952 85.0054 42.2528 85.0054 42.2817H85.5819C85.5819 42.3681 85.5819 42.4546 85.6107 42.5699H86.7637C86.7637 43.1464 86.7926 43.7229 86.7926 44.2994H85.6396C85.6396 44.3859 85.6396 44.5012 85.6396 44.5877H86.2161C86.2449 45.1642 86.2449 45.7407 86.2449 46.3172H84.2271C84.256 46.6919 84.256 47.0955 84.256 47.4702H85.6972C85.6972 47.5567 85.6972 47.672 85.6972 47.7584H84.8325C84.8613 48.1332 84.8613 48.5367 84.8613 48.9114H87.1673C87.1961 49.1997 87.1961 49.4879 87.1961 49.7762H84.8901C84.9189 50.9292 84.9189 52.0822 84.9478 53.2352H85.5243C85.5531 53.6964 85.5531 54.1864 85.5531 54.6476V54.6764H84.9766C85.0054 55.3683 84.8613 55.9159 84.6307 56.406H85.4954C85.2937 56.7519 85.0342 57.0401 84.7172 57.2707H85.8702C85.2648 57.6743 84.4577 57.9049 83.42 57.9049C81.5176 57.9049 79.961 57.8472 78.2027 57.7319L78.1739 57.2707H77.0209L76.9344 56.406H76.0696L75.9255 54.6764H76.502L76.3579 53.2352H75.7814V53.2064C75.839 53.2064 75.8967 53.2352 75.9543 53.2352H76.5308C77.7703 53.4081 79.2116 53.5234 80.0763 53.5234C80.3934 53.5234 80.6528 53.437 80.797 53.2352H80.2204C80.3646 53.0334 80.4511 52.7452 80.4511 52.3128C80.4511 51.5633 80.4511 50.6986 80.4511 49.7762H82.7571C82.7571 49.4879 82.7571 49.1997 82.7571 48.9114H80.4511C80.4511 48.5367 80.4511 48.162 80.4511 47.7584H81.3158C81.3158 47.672 81.3158 47.5567 81.3158 47.4702H79.8745C79.8745 47.0955 79.8745 46.7207 79.8745 46.3172H81.8923C81.8635 46.2019 81.8635 46.1154 81.8635 46.0001C81.777 46.1154 81.6905 46.2019 81.6041 46.3172H79.5863C79.2692 46.6919 78.9521 47.0955 78.5774 47.4702H80.0187C79.9322 47.5567 79.8457 47.672 79.7592 47.7584H78.8945C78.5198 48.1332 78.145 48.5367 77.7415 48.9114H80.0475C79.7304 49.1997 79.4133 49.4879 79.0963 49.7762H76.7903C75.4355 51.0157 73.9078 52.1975 72.3224 53.2352H72.8989C72.1494 53.754 71.3712 54.2441 70.5929 54.6764H70.0164C69.7281 54.8494 69.4111 55.0223 69.1228 55.1665L68.6904 54.6764H69.2669L67.9986 53.2352H67.4221L65.9232 51.5345C67.0762 50.9868 68.2004 50.4103 69.2381 49.7762H71.5441C72.0341 49.4879 72.4953 49.1997 72.9277 48.9114H70.6217C71.1982 48.5367 71.7747 48.162 72.3224 47.7584H73.1871C73.3313 47.672 73.4466 47.5567 73.5907 47.4702H72.1494C72.6683 47.0955 73.1583 46.6919 73.6195 46.3172H75.6373C76.3291 45.7407 76.9632 45.1642 77.5685 44.5877H76.992C77.0785 44.5012 77.1938 44.3859 77.2803 44.2994H78.4333C78.981 43.7229 79.4998 43.1464 79.961 42.5699H78.808C78.8657 42.4546 78.9521 42.3681 79.0098 42.2817H78.4333C78.4621 42.2528 78.4909 42.1952 78.5198 42.1664H71.6306C70.5352 42.1664 69.094 42.224 68.0274 42.2817V40.5522H68.6039V40.2639H69.4687V37.6697C70.2758 37.785 71.9188 37.9003 72.9565 37.9003H81.95C81.95 37.612 81.9211 37.3526 81.9211 37.0932H80.7681C80.7393 36.8049 80.7393 36.5167 80.7105 36.2284C80.7105 36.1419 80.7105 36.0266 80.6817 35.9402H81.8347C81.8347 35.8537 81.8347 35.7384 81.8058 35.6519H79.2116C79.1827 35.1331 79.1539 34.643 79.1251 34.2107H80.8546C80.8546 34.1242 80.8258 34.0089 80.8258 33.9224H82.5553C82.4976 33.6053 82.4688 33.2883 82.4112 33H87.3402C87.2826 33.2883 87.2538 33.6053 87.2249 33.9224H85.4954C85.4954 34.0089 85.4666 34.1242 85.4666 34.2107H83.7371C83.7083 34.7007 83.6795 35.1907 83.7083 35.6519H86.3025C86.3025 35.7384 86.3025 35.8537 86.3025 35.9402H85.1495Z" fill="url(#paint6_linear_445_42)"/>
<path d="M85.1062 67.2514C85.0774 67.0497 85.0198 66.8479 84.9621 66.6461H90.4965C90.4677 66.8191 90.4389 67.0208 90.41 67.2514H88.6805C88.6805 67.3379 88.6517 67.4532 88.6517 67.5397H86.9222C86.8646 68.0009 86.8357 68.4909 86.8069 68.9809H89.4012C89.4012 69.0674 89.4012 69.1827 89.4012 69.2692H88.2482C88.2193 69.6728 88.2193 70.0475 88.2193 70.3357V70.4222H89.3723V73.0741H95.195C96.7227 73.0741 98.0199 72.9588 98.7117 72.8723V73.593H97.8469V73.8812H97.2704V75.6107H97.8469V75.899H98.9999V77.6285H97.8469V77.6573C97.7316 77.6573 97.6163 77.6285 97.4722 77.6285H98.6252C97.8181 77.5708 96.5498 77.5132 95.4544 77.5132H89.6318C89.6318 77.542 89.6318 77.5996 89.6318 77.6285H88.4788C88.4788 77.7149 88.4788 77.8014 88.4499 77.9167H89.0264C88.9976 78.4932 88.94 79.0697 88.8823 79.6462H86.8646C86.8069 80.0209 86.7493 80.4245 86.6916 80.7992H88.1329C88.104 80.8857 88.104 81.001 88.0752 81.0875H87.2105C87.124 81.491 87.0375 81.8658 86.9222 82.2405H89.2282C89.1706 82.5287 89.0553 82.817 88.9688 83.1052H86.6628C86.2592 84.3159 85.6827 85.4689 84.9333 86.5642H85.5098C85.1927 87.0543 84.818 87.5443 84.3856 88.0055H83.8091C83.2903 88.6108 82.6849 89.1873 82.022 89.735H82.8867C82.512 90.0232 82.1661 90.3115 81.7625 90.5997H82.9155C82.4255 90.9745 81.8778 91.3204 81.3013 91.6663L79.8601 90.5997H78.7071L77.5541 89.735H76.6893L74.931 88.4379C75.2481 88.2937 75.5363 88.1496 75.8246 88.0055H76.4011C77.2658 87.5731 78.0153 87.0831 78.7071 86.5642H78.1306C79.4853 85.5265 80.4654 84.3735 81.186 83.1052H83.492C83.6362 82.817 83.7803 82.5287 83.9244 82.2405H81.6184C81.7914 81.8658 81.9355 81.491 82.0796 81.0875H82.9444C82.9732 81.001 83.002 80.8857 83.0308 80.7992H81.5896C81.7049 80.4245 81.7914 80.0498 81.8778 79.6462H83.8956C84.0109 79.0697 84.0974 78.4932 84.155 77.9167H83.5785C83.5785 77.8014 83.6073 77.7149 83.6073 77.6285H84.7603C84.7603 77.5996 84.7603 77.542 84.7603 77.5132H78.0153C76.9776 77.5132 75.9975 77.5708 75.1328 77.6285H73.9798C73.7203 77.6573 73.4609 77.6573 73.2303 77.6861V77.6285H74.3833V75.899H73.2303V75.6107H72.6538V73.8812H73.2303V73.593H74.0951V72.8435C75.1328 72.9588 76.3722 73.0741 77.6117 73.0741H84.5297V70.4222H83.3767V70.3069C83.3767 69.9898 83.3767 69.6439 83.3479 69.2692H84.5009C84.5009 69.1827 84.5009 69.0674 84.4721 68.9809H81.8778C81.849 68.5197 81.7914 68.0009 81.7049 67.5397H83.4344C83.4056 67.4532 83.4056 67.3379 83.3767 67.2514H85.1062Z" fill="url(#paint7_linear_445_42)"/>
<path d="M69.7497 53.0551C69.7497 53.3433 69.7497 53.6604 69.7497 53.9775V54.2081H70.9027V57.3788H70.0379V57.6671H69.4614V59.3966H70.0379V59.6848H71.1909V60.2613C71.1909 60.6649 71.1909 61.0396 71.1621 61.4144H70.0091C70.0091 61.5008 70.0091 61.6161 70.0091 61.7026H70.5856C70.5568 62.3079 70.4991 62.8844 70.4415 63.4321H68.4237C68.3949 63.8357 68.3372 64.2104 68.2796 64.5851H69.7208C69.692 64.6716 69.692 64.7869 69.6632 64.8734H68.7984C68.7119 65.2769 68.6255 65.6516 68.539 66.0264H70.845C70.7585 66.3146 70.6721 66.6029 70.5856 66.8911H68.2796C67.8184 68.2747 67.1842 69.3701 66.4059 70.3501H66.9824C66.723 70.6672 66.4636 70.9554 66.2042 71.2437C66.0312 71.4166 65.8294 71.6184 65.6277 71.7914H65.0512C64.3305 72.4255 63.5234 73.0309 62.6875 73.5209H63.5523C63.0046 73.838 62.4857 74.1262 61.9381 74.3856H63.0911C62.1975 74.818 61.3327 75.1639 60.5833 75.3945L59.6321 74.3856H58.4791L57.672 73.5209H56.8072L55.1642 71.7914H55.7407L55.4812 71.5319C56.836 71.2437 58.0467 70.8401 59.1132 70.3501H58.5367C59.8338 69.7448 60.9292 68.9953 61.8804 68.0153C62.2263 67.6406 62.5434 67.2658 62.774 66.8911H65.08C65.2818 66.6029 65.4259 66.3146 65.5988 66.0264H63.2928C63.4658 65.6516 63.6099 65.2769 63.7252 64.8734H64.59C64.6188 64.7869 64.6476 64.6716 64.6764 64.5851H63.2352C63.3217 64.2104 63.4081 63.8357 63.4658 63.4321H65.4835C65.5412 62.9133 65.5988 62.3368 65.6277 61.7026H65.0512C65.0512 61.6161 65.0512 61.5008 65.0512 61.4144H66.2042C66.233 60.9532 66.233 60.4631 66.233 59.9443V59.6848H65.08V59.3966H64.5035V57.6671H65.08V57.3788H65.9447V54.2081H64.7917V53.9775C64.7917 53.6604 64.7917 53.3433 64.7629 53.0551H65.9159C65.9159 52.9686 65.9159 52.8533 65.9159 52.7668H63.3217C63.2928 52.248 63.264 51.758 63.2064 51.3256H64.9359C64.9359 51.2103 64.9359 51.1238 64.907 51.0373H66.6365C66.6365 50.9797 66.6077 50.922 66.6077 50.8644H71.8827C71.8827 50.922 71.8827 50.9797 71.8827 51.0373H70.1532C70.1244 51.1238 70.1244 51.2103 70.1244 51.3256H68.3949C68.366 51.758 68.3372 52.248 68.3084 52.7668H70.9027C70.9027 52.8533 70.9027 52.9686 70.9027 53.0551H69.7497ZM56.4036 53.0551C56.4036 53.1704 56.4036 53.2857 56.4036 53.401V54.2081H57.5566V57.3788H56.6919V57.6671H56.1154V59.3966H56.6919V59.6848H57.8449V61.4144H56.6919V61.7026H57.2684V63.2015C57.2684 63.288 57.2684 63.3456 57.2684 63.4321H55.2506C55.2506 63.778 55.2795 64.1527 55.3083 64.5851H56.7495C56.7495 64.6716 56.7495 64.7869 56.7495 64.8734H55.8848C55.8848 65.2481 55.9136 65.594 55.9424 65.8822H50.8692C50.8692 65.6516 50.8981 65.2769 50.9269 64.8734H51.7916C51.7916 64.7869 51.8205 64.6716 51.8205 64.5851H50.3792C50.408 64.2104 50.4369 63.8068 50.4369 63.4321H52.4546C52.4546 63.3456 52.4546 63.2592 52.4546 63.1727V61.7026H51.8781V61.4144H53.0311V59.6848H51.8781V59.3966H51.3016V57.6671H51.8781V57.3788H52.7429V54.2081H51.5899V53.401C51.5899 53.2857 51.5899 53.1704 51.5899 53.0551H52.7429C52.7429 52.9686 52.7429 52.8533 52.7429 52.7668H50.1486C50.1198 52.3056 50.091 51.7868 50.0621 51.3256H51.7916C51.7916 51.2679 51.7628 51.1815 51.7628 51.1238H56.8072C56.8072 51.1815 56.8072 51.2679 56.7784 51.3256H55.0489C55.02 51.7868 54.9624 52.2192 54.9624 52.7668H57.5566C57.5566 52.8533 57.5566 52.9686 57.5566 53.0551H56.4036Z" fill="url(#paint8_linear_445_42)"/>
<path d="M72.4881 83.7537C72.4593 84.2149 72.4304 84.5897 72.4304 85.0797V85.195H75.0247V85.4832H73.8717V86.6362H75.0247V87.011H79.2331C80.5014 87.011 81.2797 86.8668 81.8562 86.6651L84.8829 88.5099C84.7676 88.8558 84.6523 89.3458 84.537 89.807H83.6722C83.6434 89.8935 83.6146 90.0088 83.5857 90.0952H83.0092C82.9228 90.4988 82.8651 90.8735 82.8075 91.1041C82.7786 91.3347 82.721 91.5941 82.6633 91.8247H83.2398C83.2398 91.9112 83.211 92.0265 83.1822 92.113H84.3352C84.2199 92.7183 84.0758 93.2948 83.9316 93.8425H82.7786C82.7498 93.929 82.721 94.0443 82.6922 94.1308H83.2687C83.0957 94.7361 82.9228 95.2838 82.721 95.8603H80.7032C80.5591 96.235 80.415 96.6385 80.242 97.0133H81.6833C81.6545 97.0997 81.5968 97.215 81.568 97.3015H80.7032C80.5591 97.6762 80.3861 98.0798 80.1844 98.4545H82.4904C82.4039 98.6275 82.2886 98.8292 82.2021 99.0022C82.1445 99.1175 82.0868 99.204 82.0292 99.3193H79.7232C79.0314 100.588 78.1378 101.741 77.1001 102.778H77.6766C77.1866 103.297 76.6389 103.758 76.0912 104.22H75.5147C74.7076 104.854 73.8429 105.43 72.9493 105.949H73.814C73.2375 106.266 72.661 106.554 72.0557 106.814H73.2087C72.171 107.275 71.0757 107.65 69.9515 107.938L68.9714 106.814H67.8184L67.069 105.949H66.2042L64.7341 104.22H65.3106L64.8783 103.729C66.0313 103.528 67.386 103.182 68.5679 102.778H67.9914C68.3373 102.663 68.6832 102.519 69.0002 102.404C70.6145 101.741 72.2863 100.732 73.6699 99.3193H75.9759C76.2353 99.0598 76.5236 98.7716 76.783 98.4545H74.477C74.5923 98.3104 74.7076 98.1663 74.8229 97.9933C74.9959 97.7627 75.14 97.5321 75.2841 97.3015H76.1489C76.2065 97.215 76.2642 97.0997 76.3218 97.0133H74.8806C75.0823 96.6385 75.2841 96.2638 75.4571 95.8603H77.4748C77.7054 95.3126 77.9072 94.7361 78.0801 94.1308H77.5036C77.5325 94.0443 77.5613 93.929 77.5901 93.8425H78.7431C78.8872 93.2948 79.0025 92.7183 79.1178 92.113H77.9648C77.9937 92.0265 77.9937 91.9112 78.0225 91.8247H77.446C77.4748 91.5941 77.5325 91.3635 77.5613 91.1329H64.2729V91.8247H64.8494V92.113H66.0024V93.8425H64.8494V94.1308H65.4259V94.8226C65.4259 95.1396 65.4259 95.4855 65.4548 95.8603H63.437C63.437 96.2638 63.4658 96.6674 63.4947 97.0133H64.9359C64.9359 97.0709 64.9647 97.1286 64.9647 97.1862H60.151C60.151 97.1286 60.151 97.0709 60.1798 97.0133H58.7385C58.7674 96.6385 58.7962 96.2638 58.825 95.8603H60.8428C60.8428 95.3991 60.8716 94.909 60.8716 94.4478V94.1308H60.2951V93.8425H61.4481V92.113H60.2951V91.8247H59.7186V90.0952H60.2951V89.807H61.1598V89.4899C61.1598 88.8269 61.131 87.5875 61.0157 86.8668C62.0822 86.9821 62.947 87.011 64.1 87.011H70.1244V86.6362H68.9714V85.4832H70.1244V85.195H67.5302V85.0797C67.5302 84.5897 67.5302 84.2149 67.4725 83.7537H69.202C69.202 83.6673 69.202 83.552 69.1732 83.4655H70.9027C70.8739 83.1196 70.8162 82.7737 70.7586 82.3125H69.0291C69.0291 82.2548 69.0002 82.1972 69.0002 82.1395H74.3905C74.3905 82.1972 74.3905 82.2548 74.3617 82.3125H76.0912C76.0624 82.7737 76.0047 83.1196 75.9759 83.4655H74.2464C74.2176 83.552 74.2176 83.6673 74.2176 83.7537H72.4881Z" fill="url(#paint9_linear_445_42)"/>
<defs>
<linearGradient id="paint0_linear_445_42" x1="120" y1="102" x2="326.5" y2="102" gradientUnits="userSpaceOnUse">
<stop stop-color="#D07AFF"/>
<stop offset="1" stop-color="#4FF4FF"/>
</linearGradient>
<linearGradient id="paint1_linear_445_42" x1="65" y1="0" x2="65" y2="130" gradientUnits="userSpaceOnUse">
<stop stop-color="#4FF4FF"/>
<stop offset="1" stop-color="#FB4FFF"/>
</linearGradient>
<linearGradient id="paint2_linear_445_42" x1="65" y1="15" x2="65" y2="115" gradientUnits="userSpaceOnUse">
<stop stop-color="#4FF4FF"/>
<stop offset="1" stop-color="#FB4FFF"/>
</linearGradient>
<linearGradient id="paint3_linear_445_42" x1="91" y1="19" x2="91" y2="57" gradientUnits="userSpaceOnUse">
<stop stop-color="#4FF4FF"/>
<stop offset="1" stop-color="#FB4FFF"/>
</linearGradient>
<linearGradient id="paint4_linear_445_42" x1="28.5587" y1="51.0012" x2="57.3838" y2="51.0012" gradientUnits="userSpaceOnUse">
<stop stop-color="#4FF4FF"/>
<stop offset="1" stop-color="#A7A0FF"/>
</linearGradient>
<linearGradient id="paint5_linear_445_42" x1="35.765" y1="77.5744" x2="61.8877" y2="77.5744" gradientUnits="userSpaceOnUse">
<stop stop-color="#4FF4FF"/>
<stop offset="1" stop-color="#A7A0FF"/>
</linearGradient>
<linearGradient id="paint6_linear_445_42" x1="65.4908" y1="42.8942" x2="94.3159" y2="42.8942" gradientUnits="userSpaceOnUse">
<stop stop-color="#A7A0FF"/>
<stop offset="1" stop-color="#FB4FFF"/>
</linearGradient>
<linearGradient id="paint7_linear_445_42" x1="70.8955" y1="76.2232" x2="99.7205" y2="76.2232" gradientUnits="userSpaceOnUse">
<stop stop-color="#A7A0FF"/>
<stop offset="1" stop-color="#FB4FFF"/>
</linearGradient>
<linearGradient id="paint8_linear_445_42" x1="46.5743" y1="62.2611" x2="79.0025" y2="62.2611" gradientUnits="userSpaceOnUse">
<stop stop-color="#94B3FF"/>
<stop offset="1" stop-color="#BC8DFF"/>
</linearGradient>
<linearGradient id="paint9_linear_445_42" x1="57.3837" y1="91.5365" x2="84.4072" y2="91.5365" gradientUnits="userSpaceOnUse">
<stop stop-color="#A1A6FF"/>
<stop offset="1" stop-color="#CD7DFF"/>
</linearGradient>
</defs>
</svg>
